HIERARCHY
ROOT hips
{
  OFFSET 0 10.6860622 2.3727825e-15
  CHANNELS 6 Xposition Yposition Zposition Yrotation Xrotation Zrotation
  JOINT leftUpperLeg
  {
    OFFSET 0.6642549969 -0.9402397400000004 0
    CHANNELS 3 Yrotation Xrotation Zrotation
    JOINT leftLowerLeg
    {
      OFFSET 0 -3.997221335632195 0
      CHANNELS 3 Yrotation Xrotation Zrotation
      JOINT leftFoot
      {
        OFFSET -0.13777839790000004 -4.6145792000000005 -0.22186036399999998
        CHANNELS 3 Yrotation Xrotation Zrotation
        JOINT leftToes
        {
          OFFSET -0.03777410834999995 -0.9130806927000008 0.85230013
          CHANNELS 3 Yrotation Xrotation Zrotation
          End Site
          {
            OFFSET -0.03777410834999995 -0.9130806927000008 0.85230013
          }
        }
      }
    }
  }
  JOINT rightUpperLeg
  {
    OFFSET -0.6642778626 -0.9402397400000004 0
    CHANNELS 3 Yrotation Xrotation Zrotation
    JOINT rightLowerLeg
    {
      OFFSET 0 -3.997221452859387 0
      CHANNELS 3 Yrotation Xrotation Zrotation
      JOINT rightFoot
      {
        OFFSET 0.1377926176 -4.6145792000000005 -0.22185782299999995
        CHANNELS 3 Yrotation Xrotation Zrotation
        JOINT rightToes
        {
          OFFSET 0.037780746850000047 -0.9130806927000008 0.85230167
          CHANNELS 3 Yrotation Xrotation Zrotation
          End Site
          {
            OFFSET 0.037780746850000047 -0.9130806927000008 0.85230167
          }
        }
      }
    }
  }
  JOINT spine
  {
    OFFSET 0 0.13988381660000015 0
    CHANNELS 3 Yrotation Xrotation Zrotation
    JOINT chest
    {
      OFFSET 0 0.6191039003973773 0
      CHANNELS 3 Yrotation Xrotation Zrotation
      JOINT upperChest
      {
        OFFSET 0 0.9855186130586943 0
        CHANNELS 3 Yrotation Xrotation Zrotation
        JOINT leftShoulder
        {
          OFFSET 0.1807663869 1.5087829790000005 0
          CHANNELS 3 Yrotation Xrotation Zrotation
          JOINT leftUpperArm
          {
            OFFSET 0.5985063006419806 0 0
            CHANNELS 3 Yrotation Xrotation Zrotation
            JOINT leftLowerArm
            {
              OFFSET 2.2993332369501065 0 0
              CHANNELS 3 Yrotation Xrotation Zrotation
              JOINT leftHand
              {
                OFFSET 2.395047042602395 0 0
                CHANNELS 3 Yrotation Xrotation Zrotation
                JOINT leftIndexProximal
                {
                  OFFSET 0.5766295810000004 0.04556643899499946 0.17265095988184
                  CHANNELS 3 Yrotation Xrotation Zrotation
                  JOINT leftIndexIntermediate
                  {
                    OFFSET 0.2957229000000008 -0.019352197700001517 -0.007932640616999987
                    CHANNELS 3 Yrotation Xrotation Zrotation
                    JOINT leftIndexDistal
                    {
                      OFFSET 0.19008243099999922 -0.012484908149998475 -0.002786250786000012
                      CHANNELS 3 Yrotation Xrotation Zrotation
                      End Site
                      {
                        OFFSET 0.19008243099999922 -0.012484908149998475 -0.002786250786000012
                      }
                    }
                  }
                }
                JOINT leftMiddleProximal
                {
                  OFFSET 0.5834975091000001 0.0524350405149987 0.02204081888183999
                  CHANNELS 3 Yrotation Xrotation Zrotation
                  JOINT leftMiddleIntermediate
                  {
                    OFFSET 0.33880573540000003 -0.019871473270000717 -0.00000971183179999946
                    CHANNELS 3 Yrotation Xrotation Zrotation
                    JOINT leftMiddleDistal
                    {
                      OFFSET 0.20676022730000088 -0.012221336379999448 0.0001471936708000235
                      CHANNELS 3 Yrotation Xrotation Zrotation
                      End Site
                      {
                        OFFSET 0.20676022730000088 -0.012221336379999448 0.0001471936708000235
                      }
                    }
                  }
                }
                JOINT leftLittleProximal
                {
                  OFFSET 0.5344154683999995 -0.012880921405001189 -0.24414037221816004
                  CHANNELS 3 Yrotation Xrotation Zrotation
                  JOINT leftLittleIntermediate
                  {
                    OFFSET 0.21758961730000093 -0.011650919939999227 0.011893592810000034
                    CHANNELS 3 Yrotation Xrotation Zrotation
                    JOINT leftLittleDistal
                    {
                      OFFSET 0.1475273964999999 -0.008152365682999818 0.006001092492999946
                      CHANNELS 3 Yrotation Xrotation Zrotation
                      End Site
                      {
                        OFFSET 0.1475273964999999 -0.008152365682999818 0.006001092492999946
                      }
                    }
                  }
                }
                JOINT leftRingProximal
                {
                  OFFSET 0.5799399463000003 0.026911854694997794 -0.12150566991816003
                  CHANNELS 3 Yrotation Xrotation Zrotation
                  JOINT leftRingIntermediate
                  {
                    OFFSET 0.26167887460000006 -0.013480186499999602 0.010996293000000053
                    CHANNELS 3 Yrotation Xrotation Zrotation
                    JOINT leftRingDistal
                    {
                      OFFSET 0.17667108799999987 -0.008990287899999228 0.0055541023999999065
                      CHANNELS 3 Yrotation Xrotation Zrotation
                      End Site
                      {
                        OFFSET 0.17667108799999987 -0.008990287899999228 0.0055541023999999065
                      }
                    }
                  }
                }
                JOINT leftThumbProximal
                {
                  OFFSET 0.11018806699999972 -0.09448718900500053 0.17047963138184
                  CHANNELS 3 Yrotation Xrotation Zrotation
                  JOINT leftThumbIntermediate
                  {
                    OFFSET 0.31062601459999983 -0.08126270900000132 0.15443142000000007
                    CHANNELS 3 Yrotation Xrotation Zrotation
                    JOINT leftThumbDistal
                    {
                      OFFSET 0.21627175790000086 -0.08833193599999878 0.018771167799999988
                      CHANNELS 3 Yrotation Xrotation Zrotation
                      End Site
                      {
                        OFFSET 0.21627175790000086 -0.08833193599999878 0.018771167799999988
                      }
                    }
                  }
                }
              }
            }
          }
        }
        JOINT neck
        {
          OFFSET 0 1.5463305265074576 0
          CHANNELS 3 Yrotation Xrotation Zrotation
          JOINT head
          {
            OFFSET 0 0.8456443600000344 0
            CHANNELS 3 Yrotation Xrotation Zrotation
            JOINT leftEye
            {
              OFFSET 0.30408573140000006 0.5104519199999995 0.1276382305
              CHANNELS 3 Yrotation Xrotation Zrotation
              End Site
              {
                OFFSET 0.30408573140000006 0.5104519199999995 0.1276382305
              }
            }
            JOINT rightEye
            {
              OFFSET -0.30409491089999996 0.5104519199999995 0.1276379445
              CHANNELS 3 Yrotation Xrotation Zrotation
              End Site
              {
                OFFSET -0.30409491089999996 0.5104519199999995 0.1276379445
              }
            }
            JOINT jaw
            {
              OFFSET -3.155239131000001e-7 -0.11984121820000082 0.60178107
              CHANNELS 3 Yrotation Xrotation Zrotation
              End Site
              {
                OFFSET -3.155239131000001e-7 -0.11984121820000082 0.60178107
              }
            }
          }
        }
        JOINT rightShoulder
        {
          OFFSET -0.1807303465 1.5087829790000005 0
          CHANNELS 3 Yrotation Xrotation Zrotation
          JOINT rightUpperArm
          {
            OFFSET -0.5985063796536958 0 0
            CHANNELS 3 Yrotation Xrotation Zrotation
            JOINT rightLowerArm
            {
              OFFSET -2.2993322059002854 0 0
              CHANNELS 3 Yrotation Xrotation Zrotation
              JOINT rightHand
              {
                OFFSET -2.395045314457259 0 0
                CHANNELS 3 Yrotation Xrotation Zrotation
                JOINT rightIndexProximal
                {
                  OFFSET -0.5764487688300002 0.0441371204405987 0.17361932004999997
                  CHANNELS 3 Yrotation Xrotation Zrotation
                  JOINT rightIndexIntermediate
                  {
                    OFFSET -0.29573011380000047 -0.01934826376999843 -0.007698921482999974
                    CHANNELS 3 Yrotation Xrotation Zrotation
                    JOINT rightIndexDistal
                    {
                      OFFSET -0.19008373999999884 -0.012503266380000655 -0.0026365778999999897
                      CHANNELS 3 Yrotation Xrotation Zrotation
                      End Site
                      {
                        OFFSET -0.19008373999999884 -0.012503266380000655 -0.0026365778999999897
                      }
                    }
                  }
                }
                JOINT rightMiddleProximal
                {
                  OFFSET -0.5834852037300005 0.05211639405060153 0.02307162440000001
                  CHANNELS 3 Yrotation Xrotation Zrotation
                  JOINT rightMiddleIntermediate
                  {
                    OFFSET -0.33880114510000003 -0.019952774050000954 0.0002455003561999819
                    CHANNELS 3 Yrotation Xrotation Zrotation
                    JOINT rightMiddleDistal
                    {
                      OFFSET -0.20675694929999955 -0.012273788999999091 0.00030209124000002766
                      CHANNELS 3 Yrotation Xrotation Zrotation
                      End Site
                      {
                        OFFSET -0.20675694929999955 -0.012273788999999091 0.00030209124000002766
                      }
                    }
                  }
                }
                JOINT rightLittleProximal
                {
                  OFFSET -0.5346811737299992 -0.011214256288399227 -0.24363941305000003
                  CHANNELS 3 Yrotation Xrotation Zrotation
                  JOINT rightLittleIntermediate
                  {
                    OFFSET -0.21757715980000092 -0.011771559690000988 0.01201554387
                    CHANNELS 3 Yrotation Xrotation Zrotation
                    JOINT rightLittleDistal
                    {
                      OFFSET -0.1475201849000004 -0.00822055339600003 0.006082065407000015
                      CHANNELS 3 Yrotation Xrotation Zrotation
                      End Site
                      {
                        OFFSET -0.1475201849000004 -0.00822055339600003 0.006082065407000015
                      }
                    }
                  }
                }
                JOINT rightRingProximal
                {
                  OFFSET -0.5800810755299999 0.027657985680600072 -0.12066365025000003
                  CHANNELS 3 Yrotation Xrotation Zrotation
                  JOINT rightRingIntermediate
                  {
                    OFFSET -0.26166445029999974 -0.013623118409999302 0.011164098990000045
                    CHANNELS 3 Yrotation Xrotation Zrotation
                    JOINT rightRingDistal
                    {
                      OFFSET -0.17666387530000027 -0.009072900100000503 0.005668185599999959
                      CHANNELS 3 Yrotation Xrotation Zrotation
                      End Site
                      {
                        OFFSET -0.17666387530000027 -0.009072900100000503 0.005668185599999959
                      }
                    }
                  }
                }
                JOINT rightThumbProximal
                {
                  OFFSET -0.10997596379000074 -0.09577489355940072 0.16989765924999997
                  CHANNELS 3 Yrotation Xrotation Zrotation
                  JOINT rightThumbIntermediate
                  {
                    OFFSET -0.31036620999999986 -0.08229339117999834 0.15440884469999996
                    CHANNELS 3 Yrotation Xrotation Zrotation
                    JOINT rightThumbDistal
                    {
                      OFFSET -0.21631306399999906 -0.08825326400000111 0.018656797720000014
                      CHANNELS 3 Yrotation Xrotation Zrotation
                      End Site
                      {
                        OFFSET -0.21631306399999906 -0.08825326400000111 0.018656797720000014
                      }
                    }
                  }
                }
              }
            }
          }
        }
      }
    }
  }
}
MOTION
Frames: 7
Frame Time: 0.03333333333333333
0 11.682712981546562 0 0 0 0 0 0 -5.826343164929014 -0.3712483961610101 -3.6333298826370974 5.838118207697276 0 0 0 0 0 0 0 0 5.826343164929014 0.3712483961610101 -3.6333298826370974 -5.838118207697276 0 0 0 0 0 0 0 -4.610651315171937 0 0 3.0831277533083026 0 0 0 0 0 1.5275236235667615 0 0 0 0 0 0 0 0 0 0 0 0 0 0 0 0 0 0 0 0 0 0 0 0 0 0 0 0 0 0 0 0 0 0 0 0 0 0 0 0 0 0 0 0 0 0 0 0 0 0 0 0 0 0 0 0 1.5275236235667615 0 0 0 0 0 0 0 0 0 0 0 0 0 0 1.5275236235667615 0 0 0 0 0 0 0 0 0 0 0 0 0 0 0 0 0 0 0 0 0 0 0 0 0 0 0 0 0 0 0 0 0 0 0 0 0 0 0 0 0 0 0 0 0 0 0 0 0 0 0 0 0 0 0
0 -10.610138021295173 9.662068625349045 0 -90 0 -6.13202531650729 1.2394735580265601 11.076706687360245 0.15480888221166436 5.8144733380080345 7.651442677283769 9.436597302286357 14.342846129830626 3.8585001472792024 0 0 0 7.3407394175686616 -15.167156337881076 -2.526272525573221 -4.167618591092354 36.45920764502838 -5.7343157869175645 -9.010206058148361 19.65121897118642 -2.5479136935817506 0 0 0 -0.015654771279430633 4.40544279600805 -0.0729202700353381 -0.7488643841586141 3.2490404630914993 -0.5667987968911108 0 0 0 16.612833785730523 -1.9488866007067511 -23.903685800602297 -30.959338083851232 -32.010684435608844 -51.417650130413286 -97.01834882067129 -20.354264735246623 -14.798743024681018 14.17752481318551 21.51794893711588 -37.512087990077376 0 0 0 0 0 0 0 0 0 0 0 0 0 0 0 0 0 0 0 0 0 0 0 0 0 0 0 0 0 0 0 0 0 0 0 0 0 0 0 0 0 0 0 0 0 0 44.524404532108406 0 0 -22.000595838218295 0 0 0 0 0 0 0 0 0 0 -7.918626413959398 -4.760930724397643 16.415109974518888 21.836130130532833 -18.79523383678166 58.01286634682692 85.51433446089146 -22.216809625954735 -0.5941870279611409 18.49558958245289 8.099062069906886 39.718100980246845 0 0 0 0 0 0 0 0 0 0 0 0 0 0 0 0 0 0 0 0 0 0 0 0 0 0 0 0 0 0 0 0 0 0 0 0 0 0 0 0 0 0 0 0 0
0 -10.610138021295173 9.662068625349045 0 -90 0 -5.783289182053484 1.1113186199887597 11.137752831163972 0.15480888221166436 5.8144733380080345 7.651442677283769 9.06732551164772 14.281128072383176 3.872252166113194 0 0 0 7.073978077833625 -15.177355869654818 -2.594064660809275 -4.167618591092354 36.45920764502838 -5.7343157869175645 -8.75931617841573 19.625271262250713 -2.6598201369333143 0 0 0 -0.015654771279430633 4.40544279600805 -0.0729202700353381 -0.7488643841586141 3.2490404630914993 -0.5667987968911108 0 0 0 16.612833785730523 -1.9488866007067511 -23.903685800602297 -30.959336357005554 -32.010684435608844 -51.417653278741575 -96.93886705975456 -20.336093198356746 -14.709928947993966 14.028709873955533 21.612497518816795 -37.916814359777625 0 0 0 0 0 0 0 0 0 0 0 0 0 0 0 0 0 0 0 0 0 0 0 0 0 0 0 0 0 0 0 0 0 0 0 0 0 0 0 0 0 0 0 0 0 0 44.71876559690215 0 0 -22.635961800359393 0 0 0 0 0 0 0 0 0 0 -7.918626413959398 -4.760930724397643 16.415109974518888 21.836130130532833 -18.79523383678166 58.01286634682692 85.14632728828953 -22.22230629066441 -0.5236235153426329 18.530842744669705 8.068220407594426 39.892838428835326 0 0 0 0 0 0 0 0 0 0 0 0 0 0 0 0 0 0 0 0 0 0 0 0 0 0 0 0 0 0 0 0 0 0 0 0 0 0 0 0 0 0 0 0 0
0 -10.610138021295173 9.662068625349045 0 -90 0 -5.434704600262847 0.9827945939581868 11.198016260515518 0.15480888221166436 5.8144733380080345 7.651442677283769 8.698139395337648 14.219496512859818 3.8864104833063746 0 0 0 6.8072166196519275 -15.187861990801133 -2.6618102744143264 -4.167618591092354 36.45920764502838 -5.7343157869175645 -8.508412573122548 19.59978450980096 -2.771828033693652 0 0 0 -0.015654771279430633 4.40544279600805 -0.0729202700353381 -0.7488643841586141 3.2490404630914993 -0.5667987968911108 0 0 0 16.61283214851164 -1.9488857464389653 -23.903684238611444 -30.959336357005554 -32.010684435608844 -51.417653278741575 -96.85936411300122 -20.318034868436598 -14.621099010945787 13.879081631841368 21.7060640436237 -38.32206782088538 0 0 0 0 0 0 0 0 0 0 0 0 0 0 0 0 0 0 0 0 0 0 0 0 0 0 0 0 0 0 0 0 0 0 0 0 0 0 0 0 0 0 0 0 0 0 44.91313072434826 0 0 -23.27132973636141 0 0 0 0 0 0 0 0 0 0 -7.918626413959398 -4.760930724397643 16.415109974518888 21.836130130532833 -18.795235640510903 58.01286634682692 84.77829918627425 -22.22738259653573 -0.45302061967012774 18.566000031810518 8.037272455826901 40.06754512267076 0 0 0 0 0 0 0 0 0 0 0 0 0 0 0 0 0 0 0 0 0 0 0 0 0 0 0 0 0 0 0 0 0 0 0 0 0 0 0 0 0 0 0 0 0
0 -10.610138021295173 9.662068625349045 0 -90 0 -4.737494471669496 0.724480715430907 11.316261329008299 0.15480908334895122 5.814475483480288 7.651443134342471 7.959506680544306 14.096424538157816 3.9159664567578734 0 0 0 6.273469669280821 -15.209792417588815 -2.797211929436618 -4.167619429044756 36.459211891179045 -5.7343162111746615 -8.006338619614004 19.55018211017806 -2.9962475815899605 0 0 0 -0.015654771279430633 4.40544279600805 -0.0729202700353381 -0.7488643841586141 3.2490404630914993 -0.5667987968911108 0 0 0 16.612833785730523 -1.9488874549745376 -23.90368874719181 -30.95933463015981 -32.01068846308409 -51.417658938759715 -96.70026527440783 -20.282259484500546 -14.443372107109154 13.577190888859546 21.890363886767616 -39.1347406680269 0 0 0 0 0 0 0 0 0 0 0 0 0 0 0 0 0 0 0 0 0 0 0 0 0 0 0 0 0 0 0 0 0 0 0 0 0 0 0 0 0 0 0 0 0 0 45.30192604669454 0 0 -24.544600794323635 0 0 0 0 0 0 0 0 0 0 -7.9186272625198795 -4.760930724397643 16.415109974518888 21.836130130532833 -18.79523383678166 58.01286634682692 84.0417478169265 -22.23627764253946 -0.3116243400541712 18.63601786196284 7.975051710383944 40.416888729498076 0 0 0 0 0 0 0 0 0 0 0 0 0 0 0 0 0 0 0 0 0 0 0 0 0 0 0 0 0 0 0 0 0 0 0 0 0 0 0 0 0 0 0 0 0
0 -10.610138021295173 9.662068625349045 0 -90 0 -4.388893871533606 0.5947110342440429 11.374235793665136 0.15480897607573155 5.814474196196935 7.651442677283769 7.5900886103666965 14.034992678026049 3.931360500804869 0 0 0 6.006498233696307 -15.221218589149139 -2.864862027087914 -4.167618855775006 36.45920764502838 -5.7343162111746615 -7.75518029237513 19.526066031746712 -3.1086479702378402 0 0 0 -0.015654771279430633 4.40544279600805 -0.0729202700353381 -0.7488643841586141 3.2490404630914993 -0.5667987968911108 0 0 0 16.612833785730523 -1.9488870278406445 -23.90368718520093 -30.959336357005554 -32.010684435608844 -51.417655790431205 -96.62068316026959 -20.264544168402637 -14.354476080958827 13.42495249504178 21.981075619077632 -39.54212539584813 0 0 0 0 0 0 0 0 0 0 0 0 0 0 0 0 0 0 0 0 0 0 0 0 0 0 0 0 0 0 0 0 0 0 0 0 0 0 0 0 0 0 0 0 0 0 45.4963563222272 0 0 -25.182340761004863 0 0 0 0 0 0 0 0 0 0 -7.918626413959398 -4.760930724397643 16.415109974518888 21.836130130532833 -18.795235640510903 58.01286940655449 83.6732579838305 -22.240096302921625 -0.24084336107703588 18.67088501572626 7.943778085929741 40.591536404119445 0 0 0 0 0 0 0 0 0 0 0 0 0 0 0 0 0 0 0 0 0 0 0 0 0 0 0 0 0 0 0 0 0 0 0 0 0 0 0 0 0 0 0 0 0
0 -10.610138021295173 9.662068625349045 0 -90 0 -4.040432042244947 0.4645911433872996 11.431418420615561 0.15480888221166436 5.8144733380080345 7.651442677283769 7.2207526357692755 13.973657341287998 3.9471582655259723 0 0 0 5.739525516473727 -15.23294977333319 -2.932459520197554 -4.167618591092354 36.45920764502838 -5.7343157869175645 -7.504008649412773 19.502413666822648 -3.221143180282792 0 0 0 -0.015654771279430633 4.40544279600805 -0.0729202700353381 -0.7488643841586141 3.2490404630914993 -0.5667987968911108 0 0 0 16.612833785730523 -1.9488866007067511 -23.903685800602297 -30.959338083851232 -32.010684435608844 -51.417650130413286 -96.54108115532664 -20.246943714696613 -14.265563353710776 13.271922817940535 22.07078219120118 -39.95002459883893 0 0 0 0 0 0 0 0 0 0 0 0 0 0 0 0 0 0 0 0 0 0 0 0 0 0 0 0 0 0 0 0 0 0 0 0 0 0 0 0 0 0 0 0 0 0 45.690785569848785 0 0 -25.820080415117562 0 0 0 0 0 0 0 0 0 0 -7.918626413959398 -4.760930724397643 16.415109974518888 21.836128456218482 -18.795237444240165 58.01287437725663 83.30475284557072 -22.243496289574892 -0.17003548147507164 18.705654284562176 7.912399957720686 40.76615509463963 0 0 0 0 0 0 0 0 0 0 0 0 0 0 0 0 0 0 0 0 0 0 0 0 0 0 0 0 0 0 0 0 0 0 0 0 0 0 0 0 0 0 0 0 0
